<svg width="183" height="183" viewBox="0 0 183 183" fill="none" xmlns="http://www.w3.org/2000/svg">
<path d="M91.1364 15.1829C95.329 15.1829 98.7278 11.7841 98.7278 7.59146C98.7278 3.39881 95.329 0 91.1364 0C86.9437 0 83.5449 3.39881 83.5449 7.59146C83.5449 11.7841 86.9437 15.1829 91.1364 15.1829Z" fill="#FF3151"/>
<path d="M91.1364 182.314C95.329 182.314 98.7278 178.915 98.7278 174.722C98.7278 170.53 95.329 167.131 91.1364 167.131C86.9437 167.131 83.5449 170.53 83.5449 174.722C83.5449 178.915 86.9437 182.314 91.1364 182.314Z" fill="#FF3151"/>
<path d="M18.7814 140.521C22.974 140.521 26.3729 137.122 26.3729 132.929C26.3729 128.737 22.974 125.338 18.7814 125.338C14.5888 125.338 11.1899 128.737 11.1899 132.929C11.1899 137.122 14.5888 140.521 18.7814 140.521Z" fill="#FF3151"/>
<path d="M163.532 56.9759C167.725 56.9759 171.124 53.5771 171.124 49.3844C171.124 45.1918 167.725 41.793 163.532 41.793C159.34 41.793 155.941 45.1918 155.941 49.3844C155.941 53.5771 159.34 56.9759 163.532 56.9759Z" fill="#FF3151"/>
<path d="M18.7814 56.9759C22.974 56.9759 26.3729 53.5771 26.3729 49.3844C26.3729 45.1918 22.974 41.793 18.7814 41.793C14.5888 41.793 11.1899 45.1918 11.1899 49.3844C11.1899 53.5771 14.5888 56.9759 18.7814 56.9759Z" fill="#FF3151"/>
<path d="M163.532 140.521C167.725 140.521 171.124 137.122 171.124 132.929C171.124 128.737 167.725 125.338 163.532 125.338C159.34 125.338 155.941 128.737 155.941 132.929C155.941 137.122 159.34 140.521 163.532 140.521Z" fill="#FF3151"/>
<path d="M91.1366 151.908C101.203 151.908 109.364 143.747 109.364 133.681C109.364 123.614 101.203 115.453 91.1366 115.453C81.0699 115.453 72.9092 123.614 72.9092 133.681C72.9092 143.747 81.0699 151.908 91.1366 151.908Z" fill="#FF3151"/>
<path d="M91.2557 66.7805C101.322 66.7805 109.483 58.6198 109.483 48.5531C109.483 38.4864 101.322 30.3257 91.2557 30.3257C81.189 30.3257 73.0283 38.4864 73.0283 48.5531C73.0283 58.6198 81.189 66.7805 91.2557 66.7805Z" fill="#FF3151"/>
<path d="M50.1356 85.8388C60.2023 85.8388 68.363 77.6782 68.363 67.6114C68.363 57.5447 60.2023 49.384 50.1356 49.384C40.0689 49.384 31.9082 57.5447 31.9082 67.6114C31.9082 77.6782 40.0689 85.8388 50.1356 85.8388Z" fill="#FF3151"/>
<path d="M132.179 133.048C142.245 133.048 150.406 124.887 150.406 114.821C150.406 104.754 142.245 96.5933 132.179 96.5933C122.112 96.5933 113.951 104.754 113.951 114.821C113.951 124.887 122.112 133.048 132.179 133.048Z" fill="#FF3151"/>
<path d="M132.179 85.7202C142.245 85.7202 150.406 77.5595 150.406 67.4928C150.406 57.4261 142.245 49.2654 132.179 49.2654C122.112 49.2654 113.951 57.4261 113.951 67.4928C113.951 77.5595 122.112 85.7202 132.179 85.7202Z" fill="#FF3151"/>
<path d="M50.1356 132.929C60.2023 132.929 68.363 124.768 68.363 114.702C68.363 104.635 60.2023 96.4741 50.1356 96.4741C40.0689 96.4741 31.9082 104.635 31.9082 114.702C31.9082 124.768 40.0689 132.929 50.1356 132.929Z" fill="#FF3151"/>
<path d="M91.1375 104.857C98.693 104.857 104.818 98.7325 104.818 91.177C104.818 83.6215 98.693 77.4966 91.1375 77.4966C83.582 77.4966 77.457 83.6215 77.457 91.177C77.457 98.7325 83.582 104.857 91.1375 104.857Z" fill="#FF3151"/>
<path d="M167.13 106.359C175.515 106.359 182.313 99.5616 182.313 91.1763C182.313 82.791 175.515 75.9934 167.13 75.9934C158.745 75.9934 151.947 82.791 151.947 91.1763C151.947 99.5616 158.745 106.359 167.13 106.359Z" fill="#FF3151"/>
<path d="M15.1829 106.359C23.5682 106.359 30.3658 99.5616 30.3658 91.1763C30.3658 82.791 23.5682 75.9934 15.1829 75.9934C6.79762 75.9934 0 82.791 0 91.1763C0 99.5616 6.79762 106.359 15.1829 106.359Z" fill="#FF3151"/>
<path d="M53.18 172.153C61.5653 172.153 68.3629 165.355 68.3629 156.97C68.3629 148.584 61.5653 141.787 53.18 141.787C44.7947 141.787 37.9971 148.584 37.9971 156.97C37.9971 165.355 44.7947 172.153 53.18 172.153Z" fill="#FF3151"/>
<path d="M129.174 40.5672C137.559 40.5672 144.357 33.7696 144.357 25.3843C144.357 16.999 137.559 10.2014 129.174 10.2014C120.788 10.2014 113.991 16.999 113.991 25.3843C113.991 33.7696 120.788 40.5672 129.174 40.5672Z" fill="#FF3151"/>
<path d="M129.134 172.153C137.519 172.153 144.317 165.355 144.317 156.97C144.317 148.584 137.519 141.787 129.134 141.787C120.749 141.787 113.951 148.584 113.951 156.97C113.951 165.355 120.749 172.153 129.134 172.153Z" fill="#FF3151"/>
<path d="M53.18 40.5672C61.5653 40.5672 68.3629 33.7696 68.3629 25.3843C68.3629 16.999 61.5653 10.2014 53.18 10.2014C44.7947 10.2014 37.9971 16.999 37.9971 25.3843C37.9971 33.7696 44.7947 40.5672 53.18 40.5672Z" fill="#FF3151"/>
</svg>
