<svg width="183" height="183" viewBox="0 0 183 183" fill="none" xmlns="http://www.w3.org/2000/svg">
<path d="M91.1365 15.1829C95.3291 15.1829 98.728 11.7841 98.728 7.59146C98.728 3.39881 95.3291 0 91.1365 0C86.9439 0 83.545 3.39881 83.545 7.59146C83.545 11.7841 86.9439 15.1829 91.1365 15.1829Z" fill="#000F1B"/>
<path d="M91.1365 182.314C95.3291 182.314 98.728 178.915 98.728 174.722C98.728 170.53 95.3291 167.131 91.1365 167.131C86.9439 167.131 83.545 170.53 83.545 174.722C83.545 178.915 86.9439 182.314 91.1365 182.314Z" fill="#000F1B"/>
<path d="M18.7813 140.521C22.9739 140.521 26.3727 137.122 26.3727 132.929C26.3727 128.737 22.9739 125.338 18.7813 125.338C14.5886 125.338 11.1898 128.737 11.1898 132.929C11.1898 137.122 14.5886 140.521 18.7813 140.521Z" fill="#000F1B"/>
<path d="M163.532 56.9759C167.725 56.9759 171.124 53.5771 171.124 49.3844C171.124 45.1918 167.725 41.793 163.532 41.793C159.34 41.793 155.941 45.1918 155.941 49.3844C155.941 53.5771 159.34 56.9759 163.532 56.9759Z" fill="#000F1B"/>
<path d="M18.7813 56.9759C22.9739 56.9759 26.3727 53.5771 26.3727 49.3844C26.3727 45.1918 22.9739 41.793 18.7813 41.793C14.5886 41.793 11.1898 45.1918 11.1898 49.3844C11.1898 53.5771 14.5886 56.9759 18.7813 56.9759Z" fill="#000F1B"/>
<path d="M163.532 140.521C167.725 140.521 171.124 137.122 171.124 132.929C171.124 128.737 167.725 125.338 163.532 125.338C159.34 125.338 155.941 128.737 155.941 132.929C155.941 137.122 159.34 140.521 163.532 140.521Z" fill="#000F1B"/>
<path d="M91.1368 151.908C101.204 151.908 109.364 143.747 109.364 133.681C109.364 123.614 101.204 115.453 91.1368 115.453C81.0701 115.453 72.9094 123.614 72.9094 133.681C72.9094 143.747 81.0701 151.908 91.1368 151.908Z" fill="#000F1B"/>
<path d="M91.2555 66.7805C101.322 66.7805 109.483 58.6198 109.483 48.5531C109.483 38.4864 101.322 30.3257 91.2555 30.3257C81.1888 30.3257 73.0281 38.4864 73.0281 48.5531C73.0281 58.6198 81.1888 66.7805 91.2555 66.7805Z" fill="#000F1B"/>
<path d="M50.1355 85.8388C60.2022 85.8388 68.3629 77.6782 68.3629 67.6114C68.3629 57.5447 60.2022 49.384 50.1355 49.384C40.0688 49.384 31.9081 57.5447 31.9081 67.6114C31.9081 77.6782 40.0688 85.8388 50.1355 85.8388Z" fill="#000F1B"/>
<path d="M132.179 133.048C142.245 133.048 150.406 124.887 150.406 114.821C150.406 104.754 142.245 96.5933 132.179 96.5933C122.112 96.5933 113.951 104.754 113.951 114.821C113.951 124.887 122.112 133.048 132.179 133.048Z" fill="#000F1B"/>
<path d="M132.179 85.7202C142.245 85.7202 150.406 77.5595 150.406 67.4928C150.406 57.4261 142.245 49.2654 132.179 49.2654C122.112 49.2654 113.951 57.4261 113.951 67.4928C113.951 77.5595 122.112 85.7202 132.179 85.7202Z" fill="#000F1B"/>
<path d="M50.1355 132.929C60.2022 132.929 68.3629 124.768 68.3629 114.702C68.3629 104.635 60.2022 96.4741 50.1355 96.4741C40.0688 96.4741 31.9081 104.635 31.9081 114.702C31.9081 124.768 40.0688 132.929 50.1355 132.929Z" fill="#000F1B"/>
<path d="M91.1373 104.857C98.6928 104.857 104.818 98.7325 104.818 91.177C104.818 83.6215 98.6928 77.4966 91.1373 77.4966C83.5818 77.4966 77.4569 83.6215 77.4569 91.177C77.4569 98.7325 83.5818 104.857 91.1373 104.857Z" fill="#000F1B"/>
<path d="M167.13 106.359C175.516 106.359 182.313 99.5616 182.313 91.1763C182.313 82.791 175.516 75.9934 167.13 75.9934C158.745 75.9934 151.948 82.791 151.948 91.1763C151.948 99.5616 158.745 106.359 167.13 106.359Z" fill="#000F1B"/>
<path d="M15.1829 106.359C23.5682 106.359 30.3658 99.5616 30.3658 91.1763C30.3658 82.791 23.5682 75.9934 15.1829 75.9934C6.79762 75.9934 0 82.791 0 91.1763C0 99.5616 6.79762 106.359 15.1829 106.359Z" fill="#000F1B"/>
<path d="M53.1801 172.153C61.5654 172.153 68.363 165.355 68.363 156.97C68.363 148.584 61.5654 141.787 53.1801 141.787C44.7948 141.787 37.9972 148.584 37.9972 156.97C37.9972 165.355 44.7948 172.153 53.1801 172.153Z" fill="#000F1B"/>
<path d="M129.174 40.5672C137.559 40.5672 144.357 33.7696 144.357 25.3843C144.357 16.999 137.559 10.2014 129.174 10.2014C120.788 10.2014 113.991 16.999 113.991 25.3843C113.991 33.7696 120.788 40.5672 129.174 40.5672Z" fill="#000F1B"/>
<path d="M129.134 172.153C137.519 172.153 144.317 165.355 144.317 156.97C144.317 148.584 137.519 141.787 129.134 141.787C120.749 141.787 113.951 148.584 113.951 156.97C113.951 165.355 120.749 172.153 129.134 172.153Z" fill="#000F1B"/>
<path d="M53.1801 40.5672C61.5654 40.5672 68.363 33.7696 68.363 25.3843C68.363 16.999 61.5654 10.2014 53.1801 10.2014C44.7948 10.2014 37.9972 16.999 37.9972 25.3843C37.9972 33.7696 44.7948 40.5672 53.1801 40.5672Z" fill="#000F1B"/>
</svg>
