<svg width="624" height="184" viewBox="0 0 624 184" fill="none" xmlns="http://www.w3.org/2000/svg">
<path d="M91.1364 16.1709C95.329 16.1709 98.7278 12.7721 98.7278 8.57949C98.7278 4.38685 95.329 0.988037 91.1364 0.988037C86.9437 0.988037 83.5449 4.38685 83.5449 8.57949C83.5449 12.7721 86.9437 16.1709 91.1364 16.1709Z" fill="#FF3151"/>
<path d="M91.1364 183.301C95.329 183.301 98.7278 179.903 98.7278 175.71C98.7278 171.517 95.329 168.118 91.1364 168.118C86.9437 168.118 83.5449 171.517 83.5449 175.71C83.5449 179.903 86.9437 183.301 91.1364 183.301Z" fill="#FF3151"/>
<path d="M18.7814 141.509C22.974 141.509 26.3729 138.11 26.3729 133.917C26.3729 129.725 22.974 126.326 18.7814 126.326C14.5888 126.326 11.1899 129.725 11.1899 133.917C11.1899 138.11 14.5888 141.509 18.7814 141.509Z" fill="#FF3151"/>
<path d="M163.532 57.9634C167.725 57.9634 171.124 54.5646 171.124 50.372C171.124 46.1793 167.725 42.7805 163.532 42.7805C159.34 42.7805 155.941 46.1793 155.941 50.372C155.941 54.5646 159.34 57.9634 163.532 57.9634Z" fill="#FF3151"/>
<path d="M18.7814 57.9634C22.974 57.9634 26.3729 54.5646 26.3729 50.372C26.3729 46.1793 22.974 42.7805 18.7814 42.7805C14.5888 42.7805 11.1899 46.1793 11.1899 50.372C11.1899 54.5646 14.5888 57.9634 18.7814 57.9634Z" fill="#FF3151"/>
<path d="M163.532 141.509C167.725 141.509 171.124 138.11 171.124 133.917C171.124 129.725 167.725 126.326 163.532 126.326C159.34 126.326 155.941 129.725 155.941 133.917C155.941 138.11 159.34 141.509 163.532 141.509Z" fill="#FF3151"/>
<path d="M91.1366 152.896C101.203 152.896 109.364 144.735 109.364 134.668C109.364 124.602 101.203 116.441 91.1366 116.441C81.0699 116.441 72.9092 124.602 72.9092 134.668C72.9092 144.735 81.0699 152.896 91.1366 152.896Z" fill="#FF3151"/>
<path d="M91.2557 67.7685C101.322 67.7685 109.483 59.6078 109.483 49.5411C109.483 39.4744 101.322 31.3137 91.2557 31.3137C81.189 31.3137 73.0283 39.4744 73.0283 49.5411C73.0283 59.6078 81.189 67.7685 91.2557 67.7685Z" fill="#FF3151"/>
<path d="M50.1356 86.8264C60.2023 86.8264 68.363 78.6657 68.363 68.599C68.363 58.5323 60.2023 50.3716 50.1356 50.3716C40.0689 50.3716 31.9082 58.5323 31.9082 68.599C31.9082 78.6657 40.0689 86.8264 50.1356 86.8264Z" fill="#FF3151"/>
<path d="M132.179 134.036C142.245 134.036 150.406 125.875 150.406 115.808C150.406 105.741 142.245 97.5808 132.179 97.5808C122.112 97.5808 113.951 105.741 113.951 115.808C113.951 125.875 122.112 134.036 132.179 134.036Z" fill="#FF3151"/>
<path d="M132.179 86.7077C142.245 86.7077 150.406 78.5471 150.406 68.4803C150.406 58.4136 142.245 50.2529 132.179 50.2529C122.112 50.2529 113.951 58.4136 113.951 68.4803C113.951 78.5471 122.112 86.7077 132.179 86.7077Z" fill="#FF3151"/>
<path d="M50.1356 133.917C60.2023 133.917 68.363 125.756 68.363 115.69C68.363 105.623 60.2023 97.4622 50.1356 97.4622C40.0689 97.4622 31.9082 105.623 31.9082 115.69C31.9082 125.756 40.0689 133.917 50.1356 133.917Z" fill="#FF3151"/>
<path d="M91.1375 105.845C98.693 105.845 104.818 99.7205 104.818 92.1651C104.818 84.6096 98.693 78.4846 91.1375 78.4846C83.582 78.4846 77.457 84.6096 77.457 92.1651C77.457 99.7205 83.582 105.845 91.1375 105.845Z" fill="#FF3151"/>
<path d="M167.13 107.347C175.515 107.347 182.313 100.55 182.313 92.1644C182.313 83.7791 175.515 76.9814 167.13 76.9814C158.745 76.9814 151.947 83.7791 151.947 92.1644C151.947 100.55 158.745 107.347 167.13 107.347Z" fill="#FF3151"/>
<path d="M15.1829 107.347C23.5682 107.347 30.3658 100.55 30.3658 92.1644C30.3658 83.7791 23.5682 76.9814 15.1829 76.9814C6.79762 76.9814 0 83.7791 0 92.1644C0 100.55 6.79762 107.347 15.1829 107.347Z" fill="#FF3151"/>
<path d="M53.18 173.14C61.5653 173.14 68.3629 166.343 68.3629 157.957C68.3629 149.572 61.5653 142.774 53.18 142.774C44.7947 142.774 37.9971 149.572 37.9971 157.957C37.9971 166.343 44.7947 173.14 53.18 173.14Z" fill="#FF3151"/>
<path d="M129.174 41.5553C137.559 41.5553 144.357 34.7577 144.357 26.3724C144.357 17.9871 137.559 11.1895 129.174 11.1895C120.788 11.1895 113.991 17.9871 113.991 26.3724C113.991 34.7577 120.788 41.5553 129.174 41.5553Z" fill="#FF3151"/>
<path d="M129.134 173.14C137.519 173.14 144.317 166.343 144.317 157.957C144.317 149.572 137.519 142.774 129.134 142.774C120.749 142.774 113.951 149.572 113.951 157.957C113.951 166.343 120.749 173.14 129.134 173.14Z" fill="#FF3151"/>
<path d="M53.18 41.5553C61.5653 41.5553 68.3629 34.7577 68.3629 26.3724C68.3629 17.9871 61.5653 11.1895 53.18 11.1895C44.7947 11.1895 37.9971 17.9871 37.9971 26.3724C37.9971 34.7577 44.7947 41.5553 53.18 41.5553Z" fill="#FF3151"/>
<path d="M457.385 34.4379C466.622 34.4379 474.11 26.9499 474.11 17.713C474.11 8.47604 466.622 0.988037 457.385 0.988037C448.148 0.988037 440.66 8.47604 440.66 17.713C440.66 26.9499 448.148 34.4379 457.385 34.4379Z" fill="#FF3151"/>
<path d="M314.136 173.457L270.169 96.791L242.254 129.529V173.496H212.719V11.1499H242.254V85.9969L307.058 11.1499H342.999L290.808 72.5142L348.97 173.457H314.175H314.136Z" fill="#FF3151"/>
<path d="M400.607 174.998C381.036 174.998 367.948 165.549 367.948 142.774V11.0308H396.93V137.95C396.93 144.87 398.551 149.456 408.436 149.456C410.967 149.456 411.639 149.219 413.26 149.219V173.377C407.487 174.524 406.34 174.998 400.607 174.998Z" fill="#FF3151"/>
<path d="M442.874 173.456V54.1677H471.935V173.456H442.874Z" fill="#FF3151"/>
<path d="M618.981 54.1682H583.04L537.728 102.722V11.1499H509.102V173.457H537.728V142.103L556.707 121.503L590.117 173.457H623.33L576.16 100.429L618.981 54.1682Z" fill="#FF3151"/>
</svg>
